<svg xmlns="http://www.w3.org/2000/svg" xmlns:xlink="http://www.w3.org/1999/xlink" width="1200" zoomAndPan="magnify" viewBox="0 0 900 449.999984" height="600" preserveAspectRatio="xMidYMid meet" version="1.0"><defs><g/><clipPath id="09c5731f1d"><rect x="0" width="241" y="0" height="120"/></clipPath><clipPath id="77bf28f636"><path d="M 450.007812 245.152344 L 729 245.152344 L 729 310.402344 L 450.007812 310.402344 Z M 450.007812 245.152344 " clip-rule="nonzero"/></clipPath><clipPath id="82e68cf16e"><path d="M 468.757812 245.152344 L 709.878906 245.152344 C 714.851562 245.152344 719.621094 247.125 723.136719 250.644531 C 726.652344 254.160156 728.628906 258.925781 728.628906 263.898438 L 728.628906 291.59375 C 728.628906 296.566406 726.652344 301.335938 723.136719 304.851562 C 719.621094 308.367188 714.851562 310.34375 709.878906 310.34375 L 468.757812 310.34375 C 463.785156 310.34375 459.015625 308.367188 455.5 304.851562 C 451.984375 301.335938 450.007812 296.566406 450.007812 291.59375 L 450.007812 263.898438 C 450.007812 258.925781 451.984375 254.160156 455.5 250.644531 C 459.015625 247.125 463.785156 245.152344 468.757812 245.152344 Z M 468.757812 245.152344 " clip-rule="nonzero"/></clipPath><clipPath id="772cea5e96"><rect x="0" width="380" y="0" height="120"/></clipPath></defs><g transform="matrix(1, 0, 0, 1, 511, 138)"><g clip-path="url(#09c5731f1d)"><g fill="#1f2632" fill-opacity="1"><g transform="translate(0.451871, 94.108652)"><g><path d="M 12.96875 -68.21875 L 14.90625 -68.21875 L 14.90625 -1.859375 L 55.546875 -1.859375 L 55.546875 0 L 12.96875 0 Z M 12.96875 -68.21875 "/></g></g></g><g fill="#1f2632" fill-opacity="1"><g transform="translate(71.594964, 94.108652)"><g><path d="M 54.375 -20.5625 L 12.671875 -20.5625 L 3.125 0 L 0.875 0 L 32.546875 -68.21875 L 34.5 -68.21875 L 66.171875 0 L 63.921875 0 Z M 53.5 -22.421875 L 33.53125 -65.59375 L 13.546875 -22.421875 Z M 53.5 -22.421875 "/></g></g></g><g fill="#1f2632" fill-opacity="1"><g transform="translate(153.263115, 94.108652)"><g><path d="M 49.40625 -34.984375 C 60.84375 -33.421875 66.5625 -27.703125 66.5625 -17.828125 C 66.5625 -12.046875 64.5 -7.628906 60.375 -4.578125 C 56.25 -1.523438 50.09375 0 41.90625 0 L 12.96875 0 L 12.96875 -68.21875 L 39.953125 -68.21875 C 47.097656 -68.21875 52.703125 -66.738281 56.765625 -63.78125 C 60.828125 -60.820312 62.859375 -56.550781 62.859375 -50.96875 C 62.859375 -46.675781 61.671875 -43.179688 59.296875 -40.484375 C 56.929688 -37.796875 53.632812 -35.960938 49.40625 -34.984375 Z M 14.90625 -66.359375 L 14.90625 -35.578125 L 40.34375 -35.578125 C 46.90625 -35.578125 51.972656 -36.890625 55.546875 -39.515625 C 59.117188 -42.148438 60.90625 -45.96875 60.90625 -50.96875 C 60.90625 -55.96875 59.117188 -59.78125 55.546875 -62.40625 C 51.972656 -65.039062 46.90625 -66.359375 40.34375 -66.359375 Z M 42.296875 -1.859375 C 57.171875 -1.859375 64.609375 -7.179688 64.609375 -17.828125 C 64.609375 -23.222656 62.738281 -27.21875 59 -29.8125 C 55.269531 -32.414062 49.703125 -33.71875 42.296875 -33.71875 L 14.90625 -33.71875 L 14.90625 -1.859375 Z M 42.296875 -1.859375 "/></g></g></g></g></g><g clip-path="url(#77bf28f636)"><g clip-path="url(#82e68cf16e)"><path stroke-linecap="butt" transform="matrix(0.75, 0, 0, 0.75, 449.999981, 245.151353)" fill="none" stroke-linejoin="miter" d="M 25.010442 0.00132113 L 346.505238 0.00132113 C 353.135447 0.00132113 359.494822 2.631529 364.182322 7.324238 C 368.869822 12.011738 371.505238 18.365905 371.505238 24.996113 L 371.505238 61.923197 C 371.505238 68.553405 368.869822 74.91278 364.182322 79.600281 C 359.494822 84.287781 353.135447 86.923197 346.505238 86.923197 L 25.010442 86.923197 C 18.380234 86.923197 12.020859 84.287781 7.333358 79.600281 C 2.645858 74.91278 0.0104417 68.553405 0.0104417 61.923197 L 0.0104417 24.996113 C 0.0104417 18.365905 2.645858 12.011738 7.333358 7.324238 C 12.020859 2.631529 18.380234 0.00132113 25.010442 0.00132113 Z M 25.010442 0.00132113 " stroke="#1f2632" stroke-width="8" stroke-opacity="1" stroke-miterlimit="4"/></g></g><g fill="#1f2632" fill-opacity="1"><g transform="translate(499.605398, 285.651364)"><g><path d="M 7.671875 0.15625 C 6.367188 0.15625 5.125 -0.0507812 3.9375 -0.46875 C 2.75 -0.882812 1.828125 -1.4375 1.171875 -2.125 L 1.90625 -3.546875 C 2.53125 -2.910156 3.367188 -2.394531 4.421875 -2 C 5.472656 -1.613281 6.554688 -1.421875 7.671875 -1.421875 C 9.242188 -1.421875 10.421875 -1.707031 11.203125 -2.28125 C 11.984375 -2.863281 12.375 -3.613281 12.375 -4.53125 C 12.375 -5.226562 12.160156 -5.785156 11.734375 -6.203125 C 11.304688 -6.617188 10.785156 -6.9375 10.171875 -7.15625 C 9.554688 -7.382812 8.695312 -7.632812 7.59375 -7.90625 C 6.28125 -8.238281 5.234375 -8.554688 4.453125 -8.859375 C 3.671875 -9.171875 3 -9.640625 2.4375 -10.265625 C 1.875 -10.898438 1.59375 -11.757812 1.59375 -12.84375 C 1.59375 -13.726562 1.828125 -14.53125 2.296875 -15.25 C 2.765625 -15.976562 3.484375 -16.5625 4.453125 -17 C 5.421875 -17.4375 6.617188 -17.65625 8.046875 -17.65625 C 9.046875 -17.65625 10.023438 -17.515625 10.984375 -17.234375 C 11.941406 -16.960938 12.769531 -16.582031 13.46875 -16.09375 L 12.84375 -14.625 C 12.113281 -15.101562 11.332031 -15.460938 10.5 -15.703125 C 9.664062 -15.953125 8.847656 -16.078125 8.046875 -16.078125 C 6.515625 -16.078125 5.359375 -15.78125 4.578125 -15.1875 C 3.804688 -14.59375 3.421875 -13.832031 3.421875 -12.90625 C 3.421875 -12.195312 3.632812 -11.628906 4.0625 -11.203125 C 4.488281 -10.785156 5.019531 -10.460938 5.65625 -10.234375 C 6.300781 -10.015625 7.164062 -9.769531 8.25 -9.5 C 9.53125 -9.1875 10.566406 -8.875 11.359375 -8.5625 C 12.148438 -8.25 12.820312 -7.78125 13.375 -7.15625 C 13.925781 -6.53125 14.203125 -5.6875 14.203125 -4.625 C 14.203125 -3.738281 13.960938 -2.929688 13.484375 -2.203125 C 13.015625 -1.484375 12.285156 -0.910156 11.296875 -0.484375 C 10.316406 -0.0546875 9.109375 0.15625 7.671875 0.15625 Z M 7.671875 0.15625 "/></g></g></g><g fill="#1f2632" fill-opacity="1"><g transform="translate(518.727856, 285.651364)"><g><path d="M 10.5 0.15625 C 8.769531 0.15625 7.195312 -0.226562 5.78125 -1 C 4.375 -1.78125 3.273438 -2.84375 2.484375 -4.1875 C 1.691406 -5.539062 1.296875 -7.0625 1.296875 -8.75 C 1.296875 -10.4375 1.691406 -11.953125 2.484375 -13.296875 C 3.273438 -14.648438 4.375 -15.710938 5.78125 -16.484375 C 7.195312 -17.265625 8.769531 -17.65625 10.5 -17.65625 C 12.226562 -17.65625 13.789062 -17.269531 15.1875 -16.5 C 16.582031 -15.726562 17.675781 -14.664062 18.46875 -13.3125 C 19.269531 -11.957031 19.671875 -10.4375 19.671875 -8.75 C 19.671875 -7.0625 19.269531 -5.539062 18.46875 -4.1875 C 17.675781 -2.832031 16.582031 -1.769531 15.1875 -1 C 13.789062 -0.226562 12.226562 0.15625 10.5 0.15625 Z M 10.5 -1.5 C 11.882812 -1.5 13.132812 -1.8125 14.25 -2.4375 C 15.363281 -3.0625 16.238281 -3.925781 16.875 -5.03125 C 17.507812 -6.144531 17.828125 -7.382812 17.828125 -8.75 C 17.828125 -10.113281 17.507812 -11.347656 16.875 -12.453125 C 16.238281 -13.566406 15.363281 -14.4375 14.25 -15.0625 C 13.132812 -15.6875 11.882812 -16 10.5 -16 C 9.113281 -16 7.859375 -15.6875 6.734375 -15.0625 C 5.609375 -14.4375 4.722656 -13.566406 4.078125 -12.453125 C 3.441406 -11.347656 3.125 -10.113281 3.125 -8.75 C 3.125 -7.382812 3.441406 -6.144531 4.078125 -5.03125 C 4.722656 -3.925781 5.609375 -3.0625 6.734375 -2.4375 C 7.859375 -1.8125 9.113281 -1.5 10.5 -1.5 Z M 10.5 -1.5 "/></g></g></g><g fill="#1f2632" fill-opacity="1"><g transform="translate(543.449427, 285.651364)"><g><path d="M 2.84375 -17.5 L 4.703125 -17.5 L 4.703125 -1.59375 L 14.5 -1.59375 L 14.5 0 L 2.84375 0 Z M 2.84375 -17.5 "/></g></g></g><g fill="#1f2632" fill-opacity="1"><g transform="translate(561.921987, 285.651364)"><g><path d="M 9.90625 0.15625 C 7.632812 0.15625 5.863281 -0.492188 4.59375 -1.796875 C 3.332031 -3.097656 2.703125 -4.988281 2.703125 -7.46875 L 2.703125 -17.5 L 4.546875 -17.5 L 4.546875 -7.546875 C 4.546875 -5.515625 5.003906 -4 5.921875 -3 C 6.835938 -2 8.164062 -1.5 9.90625 -1.5 C 11.65625 -1.5 12.988281 -2 13.90625 -3 C 14.820312 -4 15.28125 -5.515625 15.28125 -7.546875 L 15.28125 -17.5 L 17.078125 -17.5 L 17.078125 -7.46875 C 17.078125 -4.988281 16.445312 -3.097656 15.1875 -1.796875 C 13.925781 -0.492188 12.164062 0.15625 9.90625 0.15625 Z M 9.90625 0.15625 "/></g></g></g><g fill="#1f2632" fill-opacity="1"><g transform="translate(585.468753, 285.651364)"><g><path d="M 6.25 -15.90625 L 0.09375 -15.90625 L 0.09375 -17.5 L 14.25 -17.5 L 14.25 -15.90625 L 8.09375 -15.90625 L 8.09375 0 L 6.25 0 Z M 6.25 -15.90625 "/></g></g></g><g fill="#1f2632" fill-opacity="1"><g transform="translate(603.566381, 285.651364)"><g><path d="M 2.84375 -17.5 L 4.703125 -17.5 L 4.703125 0 L 2.84375 0 Z M 2.84375 -17.5 "/></g></g></g><g fill="#1f2632" fill-opacity="1"><g transform="translate(614.865086, 285.651364)"><g><path d="M 10.5 0.15625 C 8.769531 0.15625 7.195312 -0.226562 5.78125 -1 C 4.375 -1.78125 3.273438 -2.84375 2.484375 -4.1875 C 1.691406 -5.539062 1.296875 -7.0625 1.296875 -8.75 C 1.296875 -10.4375 1.691406 -11.953125 2.484375 -13.296875 C 3.273438 -14.648438 4.375 -15.710938 5.78125 -16.484375 C 7.195312 -17.265625 8.769531 -17.65625 10.5 -17.65625 C 12.226562 -17.65625 13.789062 -17.269531 15.1875 -16.5 C 16.582031 -15.726562 17.675781 -14.664062 18.46875 -13.3125 C 19.269531 -11.957031 19.671875 -10.4375 19.671875 -8.75 C 19.671875 -7.0625 19.269531 -5.539062 18.46875 -4.1875 C 17.675781 -2.832031 16.582031 -1.769531 15.1875 -1 C 13.789062 -0.226562 12.226562 0.15625 10.5 0.15625 Z M 10.5 -1.5 C 11.882812 -1.5 13.132812 -1.8125 14.25 -2.4375 C 15.363281 -3.0625 16.238281 -3.925781 16.875 -5.03125 C 17.507812 -6.144531 17.828125 -7.382812 17.828125 -8.75 C 17.828125 -10.113281 17.507812 -11.347656 16.875 -12.453125 C 16.238281 -13.566406 15.363281 -14.4375 14.25 -15.0625 C 13.132812 -15.6875 11.882812 -16 10.5 -16 C 9.113281 -16 7.859375 -15.6875 6.734375 -15.0625 C 5.609375 -14.4375 4.722656 -13.566406 4.078125 -12.453125 C 3.441406 -11.347656 3.125 -10.113281 3.125 -8.75 C 3.125 -7.382812 3.441406 -6.144531 4.078125 -5.03125 C 4.722656 -3.925781 5.609375 -3.0625 6.734375 -2.4375 C 7.859375 -1.8125 9.113281 -1.5 10.5 -1.5 Z M 10.5 -1.5 "/></g></g></g><g fill="#1f2632" fill-opacity="1"><g transform="translate(639.586657, 285.651364)"><g><path d="M 17.46875 -17.5 L 17.46875 0 L 15.953125 0 L 4.703125 -14.203125 L 4.703125 0 L 2.84375 0 L 2.84375 -17.5 L 4.375 -17.5 L 15.65625 -3.296875 L 15.65625 -17.5 Z M 17.46875 -17.5 "/></g></g></g><g fill="#1f2632" fill-opacity="1"><g transform="translate(663.65833, 285.651364)"><g><path d="M 7.671875 0.15625 C 6.367188 0.15625 5.125 -0.0507812 3.9375 -0.46875 C 2.75 -0.882812 1.828125 -1.4375 1.171875 -2.125 L 1.90625 -3.546875 C 2.53125 -2.910156 3.367188 -2.394531 4.421875 -2 C 5.472656 -1.613281 6.554688 -1.421875 7.671875 -1.421875 C 9.242188 -1.421875 10.421875 -1.707031 11.203125 -2.28125 C 11.984375 -2.863281 12.375 -3.613281 12.375 -4.53125 C 12.375 -5.226562 12.160156 -5.785156 11.734375 -6.203125 C 11.304688 -6.617188 10.785156 -6.9375 10.171875 -7.15625 C 9.554688 -7.382812 8.695312 -7.632812 7.59375 -7.90625 C 6.28125 -8.238281 5.234375 -8.554688 4.453125 -8.859375 C 3.671875 -9.171875 3 -9.640625 2.4375 -10.265625 C 1.875 -10.898438 1.59375 -11.757812 1.59375 -12.84375 C 1.59375 -13.726562 1.828125 -14.53125 2.296875 -15.25 C 2.765625 -15.976562 3.484375 -16.5625 4.453125 -17 C 5.421875 -17.4375 6.617188 -17.65625 8.046875 -17.65625 C 9.046875 -17.65625 10.023438 -17.515625 10.984375 -17.234375 C 11.941406 -16.960938 12.769531 -16.582031 13.46875 -16.09375 L 12.84375 -14.625 C 12.113281 -15.101562 11.332031 -15.460938 10.5 -15.703125 C 9.664062 -15.953125 8.847656 -16.078125 8.046875 -16.078125 C 6.515625 -16.078125 5.359375 -15.78125 4.578125 -15.1875 C 3.804688 -14.59375 3.421875 -13.832031 3.421875 -12.90625 C 3.421875 -12.195312 3.632812 -11.628906 4.0625 -11.203125 C 4.488281 -10.785156 5.019531 -10.460938 5.65625 -10.234375 C 6.300781 -10.015625 7.164062 -9.769531 8.25 -9.5 C 9.53125 -9.1875 10.566406 -8.875 11.359375 -8.5625 C 12.148438 -8.25 12.820312 -7.78125 13.375 -7.15625 C 13.925781 -6.53125 14.203125 -5.6875 14.203125 -4.625 C 14.203125 -3.738281 13.960938 -2.929688 13.484375 -2.203125 C 13.015625 -1.484375 12.285156 -0.910156 11.296875 -0.484375 C 10.316406 -0.0546875 9.109375 0.15625 7.671875 0.15625 Z M 7.671875 0.15625 "/></g></g></g><g transform="matrix(1, 0, 0, 1, 142, 138)"><g clip-path="url(#772cea5e96)"><g fill="#1f2632" fill-opacity="1"><g transform="translate(0.6325, 94.108652)"><g><path d="M 26.125 -53.3125 L 26.125 -38.296875 L 56.234375 -38.296875 L 56.234375 -23.390625 L 26.125 -23.390625 L 26.125 0 L 6.828125 0 L 6.828125 -68.21875 L 60.328125 -68.21875 L 60.328125 -53.3125 Z M 26.125 -53.3125 "/></g></g></g><g fill="#1f2632" fill-opacity="1"><g transform="translate(77.817756, 94.108652)"><g><path d="M 6.828125 -68.21875 L 26.125 -68.21875 L 26.125 -15.296875 L 58.671875 -15.296875 L 58.671875 0 L 6.828125 0 Z M 6.828125 -68.21875 "/></g></g></g><g fill="#1f2632" fill-opacity="1"><g transform="translate(151.884477, 94.108652)"><g><path d="M 41.21875 1.359375 C 34.007812 1.359375 27.53125 -0.164062 21.78125 -3.21875 C 16.03125 -6.269531 11.515625 -10.488281 8.234375 -15.875 C 4.953125 -21.269531 3.3125 -27.347656 3.3125 -34.109375 C 3.3125 -40.867188 4.953125 -46.941406 8.234375 -52.328125 C 11.515625 -57.722656 16.03125 -61.945312 21.78125 -65 C 27.53125 -68.050781 34.007812 -69.578125 41.21875 -69.578125 C 48.4375 -69.578125 54.921875 -68.050781 60.671875 -65 C 66.421875 -61.945312 70.929688 -57.722656 74.203125 -52.328125 C 77.484375 -46.941406 79.125 -40.867188 79.125 -34.109375 C 79.125 -27.347656 77.484375 -21.269531 74.203125 -15.875 C 70.929688 -10.488281 66.421875 -6.269531 60.671875 -3.21875 C 54.921875 -0.164062 48.4375 1.359375 41.21875 1.359375 Z M 41.21875 -14.625 C 44.664062 -14.625 47.785156 -15.429688 50.578125 -17.046875 C 53.367188 -18.671875 55.578125 -20.960938 57.203125 -23.921875 C 58.828125 -26.878906 59.640625 -30.273438 59.640625 -34.109375 C 59.640625 -37.941406 58.828125 -41.332031 57.203125 -44.28125 C 55.578125 -47.238281 53.367188 -49.53125 50.578125 -51.15625 C 47.785156 -52.78125 44.664062 -53.59375 41.21875 -53.59375 C 37.78125 -53.59375 34.660156 -52.78125 31.859375 -51.15625 C 29.066406 -49.53125 26.859375 -47.238281 25.234375 -44.28125 C 23.609375 -41.332031 22.796875 -37.941406 22.796875 -34.109375 C 22.796875 -30.273438 23.609375 -26.878906 25.234375 -23.921875 C 26.859375 -20.960938 29.066406 -18.671875 31.859375 -17.046875 C 34.660156 -15.429688 37.78125 -14.625 41.21875 -14.625 Z M 41.21875 -14.625 "/></g></g></g><g fill="#1f2632" fill-opacity="1"><g transform="translate(248.950393, 94.108652)"><g><path d="M 113.828125 -68.21875 L 91.703125 0 L 71.046875 0 L 57.984375 -41.515625 L 44.34375 0 L 23.6875 0 L 1.5625 -68.21875 L 21.4375 -68.21875 L 35.1875 -24.65625 L 49.609375 -68.21875 L 67.34375 -68.21875 L 81.078125 -24.265625 L 95.40625 -68.21875 Z M 113.828125 -68.21875 "/></g></g></g></g></g></svg>