<svg xmlns="http://www.w3.org/2000/svg" xmlns:xlink="http://www.w3.org/1999/xlink" width="300" zoomAndPan="magnify" viewBox="0 0 224.87999 225" height="300" preserveAspectRatio="xMidYMid meet" version="1.0"><defs><filter x="0%" y="0%" width="100%" height="100%" id="c77aff5414"><feColorMatrix values="0 0 0 0 1 0 0 0 0 1 0 0 0 0 1 0 0 0 1 0" color-interpolation-filters="sRGB"/></filter><g/><clipPath id="e1cdfafe86"><path d="M 4 0.0585938 L 171 0.0585938 L 171 81 L 4 81 Z M 4 0.0585938 " clip-rule="nonzero"/></clipPath><clipPath id="f30f674332"><path d="M 0.636719 0.0585938 L 166.464844 0.0585938 L 166.464844 80.488281 L 0.636719 80.488281 Z M 0.636719 0.0585938 " clip-rule="nonzero"/></clipPath><clipPath id="7cde7a4a24"><path d="M 0.636719 0.0585938 L 166.464844 0.0585938 L 166.464844 80.488281 L 0.636719 80.488281 Z M 0.636719 0.0585938 " clip-rule="nonzero"/></clipPath><clipPath id="ec04dda13b"><path d="M 0.636719 0.0585938 L 165.648438 0.0585938 L 165.648438 67.027344 L 0.636719 67.027344 Z M 0.636719 0.0585938 " clip-rule="nonzero"/></clipPath><linearGradient x1="-33.462279" gradientTransform="matrix(0.204075, 0, 0, 0.203833, 42.508881, -13.523922)" y1="-105.072664" x2="535.091501" gradientUnits="userSpaceOnUse" y2="463.483267" id="98363228c2"><stop stop-opacity="1" stop-color="rgb(0%, 70.588684%, 63.139343%)" offset="0"/><stop stop-opacity="1" stop-color="rgb(0%, 70.588684%, 63.139343%)" offset="0.125"/><stop stop-opacity="1" stop-color="rgb(0.0137329%, 70.549011%, 63.22937%)" offset="0.1875"/><stop stop-opacity="1" stop-color="rgb(0.0549316%, 70.436096%, 63.487244%)" offset="0.203125"/><stop stop-opacity="1" stop-color="rgb(0.106812%, 70.289612%, 63.819885%)" offset="0.21875"/><stop stop-opacity="1" stop-color="rgb(0.160217%, 70.143127%, 64.152527%)" offset="0.234375"/><stop stop-opacity="1" stop-color="rgb(0.213623%, 69.995117%, 64.485168%)" offset="0.25"/><stop stop-opacity="1" stop-color="rgb(0.267029%, 69.848633%, 64.81781%)" offset="0.265625"/><stop stop-opacity="1" stop-color="rgb(0.320435%, 69.702148%, 65.150452%)" offset="0.28125"/><stop stop-opacity="1" stop-color="rgb(0.37384%, 69.555664%, 65.483093%)" offset="0.288922"/><stop stop-opacity="1" stop-color="rgb(0.401306%, 69.482422%, 65.649414%)" offset="0.296875"/><stop stop-opacity="1" stop-color="rgb(0.427246%, 69.40918%, 65.815735%)" offset="0.3125"/><stop stop-opacity="1" stop-color="rgb(0.480652%, 69.262695%, 66.148376%)" offset="0.328125"/><stop stop-opacity="1" stop-color="rgb(0.534058%, 69.116211%, 66.482544%)" offset="0.34375"/><stop stop-opacity="1" stop-color="rgb(0.587463%, 68.968201%, 66.815186%)" offset="0.359375"/><stop stop-opacity="1" stop-color="rgb(0.640869%, 68.821716%, 67.147827%)" offset="0.375"/><stop stop-opacity="1" stop-color="rgb(0.694275%, 68.675232%, 67.480469%)" offset="0.390625"/><stop stop-opacity="1" stop-color="rgb(0.747681%, 68.528748%, 67.81311%)" offset="0.40625"/><stop stop-opacity="1" stop-color="rgb(0.801086%, 68.382263%, 68.145752%)" offset="0.421875"/><stop stop-opacity="1" stop-color="rgb(0.854492%, 68.235779%, 68.478394%)" offset="0.4375"/><stop stop-opacity="1" stop-color="rgb(0.907898%, 68.089294%, 68.811035%)" offset="0.453125"/><stop stop-opacity="1" stop-color="rgb(0.959778%, 67.94281%, 69.143677%)" offset="0.46875"/><stop stop-opacity="1" stop-color="rgb(1.013184%, 67.7948%, 69.476318%)" offset="0.484375"/><stop stop-opacity="1" stop-color="rgb(1.066589%, 67.648315%, 69.80896%)" offset="0.5"/><stop stop-opacity="1" stop-color="rgb(1.119995%, 67.501831%, 70.143127%)" offset="0.515625"/><stop stop-opacity="1" stop-color="rgb(1.173401%, 67.355347%, 70.475769%)" offset="0.53125"/><stop stop-opacity="1" stop-color="rgb(1.226807%, 67.208862%, 70.808411%)" offset="0.546875"/><stop stop-opacity="1" stop-color="rgb(1.280212%, 67.062378%, 71.141052%)" offset="0.5625"/><stop stop-opacity="1" stop-color="rgb(1.333618%, 66.915894%, 71.473694%)" offset="0.578125"/><stop stop-opacity="1" stop-color="rgb(1.387024%, 66.767883%, 71.806335%)" offset="0.59375"/><stop stop-opacity="1" stop-color="rgb(1.44043%, 66.621399%, 72.138977%)" offset="0.609375"/><stop stop-opacity="1" stop-color="rgb(1.493835%, 66.474915%, 72.471619%)" offset="0.625"/><stop stop-opacity="1" stop-color="rgb(1.544189%, 66.334534%, 72.787476%)" offset="0.711078"/><stop stop-opacity="1" stop-color="rgb(1.568604%, 66.268921%, 72.938538%)" offset="0.75"/><stop stop-opacity="1" stop-color="rgb(1.568604%, 66.268921%, 72.938538%)" offset="1"/></linearGradient><clipPath id="717dde8c72"><rect x="0" width="167" y="0" height="81"/></clipPath><clipPath id="c30e3c4113"><path d="M 0.636719 0.0585938 L 166.464844 0.0585938 L 166.464844 80.488281 L 0.636719 80.488281 Z M 0.636719 0.0585938 " clip-rule="nonzero"/></clipPath><clipPath id="8195ba9218"><rect x="0" width="167" y="0" height="81"/></clipPath><clipPath id="2002831940"><rect x="0" width="167" y="0" height="81"/></clipPath><mask id="05a9c385ce"><g filter="url(#c77aff5414)"><g transform="matrix(1, 0, 0, 1, 0.000000000000000444, -0.000000000000003234)"><g clip-path="url(#2002831940)"><g clip-path="url(#c30e3c4113)"><g transform="matrix(1, 0, 0, 1, 0.000000000000000444, -0.000000000000003234)"><g clip-path="url(#8195ba9218)"><g fill="#000000" fill-opacity="1"><g transform="translate(42.450278, 19.909686)"><g><path d="M 5.609375 -11.4375 L 5.609375 -8.21875 L 12.078125 -8.21875 L 12.078125 -5.015625 L 5.609375 -5.015625 L 5.609375 0 L 1.46875 0 L 1.46875 -14.640625 L 12.953125 -14.640625 L 12.953125 -11.4375 Z M 5.609375 -11.4375 "/></g></g></g><g fill="#000000" fill-opacity="1"><g transform="translate(59.021428, 19.909686)"><g><path d="M 1.46875 -14.640625 L 5.609375 -14.640625 L 5.609375 -3.28125 L 12.59375 -3.28125 L 12.59375 0 L 1.46875 0 Z M 1.46875 -14.640625 "/></g></g></g><g fill="#000000" fill-opacity="1"><g transform="translate(74.92305, 19.909686)"><g><path d="M 8.84375 0.296875 C 7.300781 0.296875 5.910156 -0.03125 4.671875 -0.6875 C 3.441406 -1.34375 2.472656 -2.25 1.765625 -3.40625 C 1.066406 -4.5625 0.71875 -5.867188 0.71875 -7.328125 C 0.71875 -8.773438 1.066406 -10.078125 1.765625 -11.234375 C 2.472656 -12.390625 3.441406 -13.296875 4.671875 -13.953125 C 5.910156 -14.609375 7.300781 -14.9375 8.84375 -14.9375 C 10.394531 -14.9375 11.785156 -14.609375 13.015625 -13.953125 C 14.253906 -13.296875 15.222656 -12.390625 15.921875 -11.234375 C 16.628906 -10.078125 16.984375 -8.773438 16.984375 -7.328125 C 16.984375 -5.867188 16.628906 -4.5625 15.921875 -3.40625 C 15.222656 -2.25 14.253906 -1.34375 13.015625 -0.6875 C 11.785156 -0.03125 10.394531 0.296875 8.84375 0.296875 Z M 8.84375 -3.140625 C 9.582031 -3.140625 10.253906 -3.3125 10.859375 -3.65625 C 11.460938 -4.007812 11.9375 -4.503906 12.28125 -5.140625 C 12.625 -5.773438 12.796875 -6.503906 12.796875 -7.328125 C 12.796875 -8.148438 12.625 -8.878906 12.28125 -9.515625 C 11.9375 -10.148438 11.460938 -10.640625 10.859375 -10.984375 C 10.253906 -11.328125 9.582031 -11.5 8.84375 -11.5 C 8.101562 -11.5 7.429688 -11.328125 6.828125 -10.984375 C 6.234375 -10.640625 5.757812 -10.148438 5.40625 -9.515625 C 5.0625 -8.878906 4.890625 -8.148438 4.890625 -7.328125 C 4.890625 -6.503906 5.0625 -5.773438 5.40625 -5.140625 C 5.757812 -4.503906 6.234375 -4.007812 6.828125 -3.65625 C 7.429688 -3.3125 8.101562 -3.140625 8.84375 -3.140625 Z M 8.84375 -3.140625 "/></g></g></g><g fill="#000000" fill-opacity="1"><g transform="translate(95.762443, 19.909686)"><g><path d="M 24.4375 -14.640625 L 19.6875 0 L 15.25 0 L 12.453125 -8.90625 L 9.515625 0 L 5.078125 0 L 0.328125 -14.640625 L 4.609375 -14.640625 L 7.546875 -5.296875 L 10.65625 -14.640625 L 14.453125 -14.640625 L 17.40625 -5.203125 L 20.484375 -14.640625 Z M 24.4375 -14.640625 "/></g></g></g></g></g></g></g></g></g></mask><clipPath id="14890b5b26"><path d="M 0.636719 0.0585938 L 165.648438 0.0585938 L 165.648438 67.027344 L 0.636719 67.027344 Z M 0.636719 0.0585938 " clip-rule="nonzero"/></clipPath><clipPath id="e761aabaa2"><rect x="0" width="167" y="0" height="81"/></clipPath><clipPath id="968f1163d9"><rect x="0" width="167" y="0" height="81"/></clipPath><clipPath id="5afa89a0f5"><rect x="0" width="167" y="0" height="81"/></clipPath><clipPath id="56ac8b5d9b"><path d="M 0 0.0585938 L 224.761719 0.0585938 L 224.761719 224.9375 L 0 224.9375 Z M 0 0.0585938 " clip-rule="nonzero"/></clipPath><clipPath id="6bcc8ef0f6"><path d="M 0 0.0585938 L 224.761719 0.0585938 L 224.761719 224.9375 L 0 224.9375 Z M 0 0.0585938 " clip-rule="nonzero"/></clipPath><clipPath id="5b96c05100"><path d="M 0 0.0585938 L 224.761719 0.0585938 L 224.761719 224.9375 L 0 224.9375 Z M 0 0.0585938 " clip-rule="nonzero"/></clipPath><clipPath id="4165153c0e"><path d="M 0 0.0585938 L 224.761719 0.0585938 L 224.761719 224.9375 L 0 224.9375 Z M 0 0.0585938 " clip-rule="nonzero"/></clipPath><linearGradient x1="16.946881" gradientTransform="matrix(0.791036, 0, 0, 0.791168, -19.111138, 72.143214)" y1="-83.897117" x2="301.132862" gradientUnits="userSpaceOnUse" y2="200.288873" id="b85a8a504e"><stop stop-opacity="1" stop-color="rgb(0%, 70.588684%, 63.139343%)" offset="0"/><stop stop-opacity="1" stop-color="rgb(0.00457764%, 70.573425%, 63.172913%)" offset="0.0625"/><stop stop-opacity="1" stop-color="rgb(0.0396729%, 70.477295%, 63.391113%)" offset="0.09375"/><stop stop-opacity="1" stop-color="rgb(0.0976562%, 70.315552%, 63.75885%)" offset="0.125"/><stop stop-opacity="1" stop-color="rgb(0.157166%, 70.153809%, 64.126587%)" offset="0.15625"/><stop stop-opacity="1" stop-color="rgb(0.216675%, 69.99054%, 64.494324%)" offset="0.1875"/><stop stop-opacity="1" stop-color="rgb(0.274658%, 69.828796%, 64.862061%)" offset="0.21875"/><stop stop-opacity="1" stop-color="rgb(0.334167%, 69.667053%, 65.229797%)" offset="0.25"/><stop stop-opacity="1" stop-color="rgb(0.392151%, 69.50531%, 65.59906%)" offset="0.28125"/><stop stop-opacity="1" stop-color="rgb(0.45166%, 69.342041%, 65.966797%)" offset="0.3125"/><stop stop-opacity="1" stop-color="rgb(0.511169%, 69.180298%, 66.334534%)" offset="0.34375"/><stop stop-opacity="1" stop-color="rgb(0.569153%, 69.018555%, 66.702271%)" offset="0.375"/><stop stop-opacity="1" stop-color="rgb(0.628662%, 68.856812%, 67.070007%)" offset="0.40625"/><stop stop-opacity="1" stop-color="rgb(0.688171%, 68.693542%, 67.437744%)" offset="0.4375"/><stop stop-opacity="1" stop-color="rgb(0.746155%, 68.531799%, 67.805481%)" offset="0.46875"/><stop stop-opacity="1" stop-color="rgb(0.805664%, 68.370056%, 68.173218%)" offset="0.499908"/><stop stop-opacity="1" stop-color="rgb(0.834656%, 68.289185%, 68.357849%)" offset="0.5"/><stop stop-opacity="1" stop-color="rgb(0.863647%, 68.206787%, 68.540955%)" offset="0.500092"/><stop stop-opacity="1" stop-color="rgb(0.894165%, 68.125916%, 68.725586%)" offset="0.53125"/><stop stop-opacity="1" stop-color="rgb(0.923157%, 68.045044%, 68.908691%)" offset="0.5625"/><stop stop-opacity="1" stop-color="rgb(0.982666%, 67.883301%, 69.276428%)" offset="0.59375"/><stop stop-opacity="1" stop-color="rgb(1.040649%, 67.721558%, 69.644165%)" offset="0.625"/><stop stop-opacity="1" stop-color="rgb(1.100159%, 67.558289%, 70.011902%)" offset="0.65625"/><stop stop-opacity="1" stop-color="rgb(1.159668%, 67.396545%, 70.381165%)" offset="0.6875"/><stop stop-opacity="1" stop-color="rgb(1.217651%, 67.234802%, 70.748901%)" offset="0.71875"/><stop stop-opacity="1" stop-color="rgb(1.277161%, 67.073059%, 71.116638%)" offset="0.75"/><stop stop-opacity="1" stop-color="rgb(1.335144%, 66.90979%, 71.484375%)" offset="0.78125"/><stop stop-opacity="1" stop-color="rgb(1.394653%, 66.748047%, 71.852112%)" offset="0.8125"/><stop stop-opacity="1" stop-color="rgb(1.454163%, 66.586304%, 72.219849%)" offset="0.84375"/><stop stop-opacity="1" stop-color="rgb(1.512146%, 66.423035%, 72.587585%)" offset="0.875"/><stop stop-opacity="1" stop-color="rgb(1.554871%, 66.305542%, 72.854614%)" offset="1"/></linearGradient><clipPath id="73ac2ecbaf"><rect x="0" width="225" y="0" height="225"/></clipPath><clipPath id="bc71fe60f8"><path d="M 0 0.0585938 L 224.761719 0.0585938 L 224.761719 224.9375 L 0 224.9375 Z M 0 0.0585938 " clip-rule="nonzero"/></clipPath><clipPath id="6ad172c22d"><rect x="0" width="225" y="0" height="225"/></clipPath><clipPath id="146dcdf48c"><rect x="0" width="225" y="0" height="225"/></clipPath><mask id="16be315761"><g filter="url(#c77aff5414)"><g transform="matrix(1, 0, 0, 1, 0, -0.000000000000003234)"><g clip-path="url(#146dcdf48c)"><g clip-path="url(#bc71fe60f8)"><g transform="matrix(1, 0, 0, 1, 0, -0.000000000000003234)"><g clip-path="url(#6ad172c22d)"><g fill="#000000" fill-opacity="1"><g transform="translate(12.172811, 169.477151)"><g><path d="M 43.375 -88.546875 L 43.375 -63.609375 L 93.40625 -63.609375 L 93.40625 -38.84375 L 43.375 -38.84375 L 43.375 0 L 11.328125 0 L 11.328125 -113.3125 L 100.203125 -113.3125 L 100.203125 -88.546875 Z M 43.375 -88.546875 "/></g></g></g><g fill="#000000" fill-opacity="1"><g transform="translate(103.466549, 169.477151)"><g><path d="M 11.328125 -113.3125 L 43.375 -113.3125 L 43.375 -25.421875 L 97.453125 -25.421875 L 97.453125 0 L 11.328125 0 Z M 11.328125 -113.3125 "/></g></g></g></g></g></g></g></g></g></mask><clipPath id="60462b9c3c"><path d="M 0 0.0585938 L 224.761719 0.0585938 L 224.761719 224.9375 L 0 224.9375 Z M 0 0.0585938 " clip-rule="nonzero"/></clipPath><clipPath id="0d1701455b"><rect x="0" width="225" y="0" height="225"/></clipPath><clipPath id="6da2eb45d1"><rect x="0" width="225" y="0" height="225"/></clipPath><clipPath id="2f4855f351"><rect x="0" width="225" y="0" height="225"/></clipPath></defs><g fill="#e1e1e1" fill-opacity="1"><g transform="translate(125.633299, 18.937354)"><g><path d="M 2.78125 -14.640625 L 3.203125 -14.640625 L 3.203125 -0.390625 L 11.921875 -0.390625 L 11.921875 0 L 2.78125 0 Z M 2.78125 -14.640625 "/></g></g></g><g fill="#e1e1e1" fill-opacity="1"><g transform="translate(140.904739, 18.937354)"><g><path d="M 11.671875 -4.421875 L 2.71875 -4.421875 L 0.671875 0 L 0.1875 0 L 6.984375 -14.640625 L 7.40625 -14.640625 L 14.203125 0 L 13.71875 0 Z M 11.484375 -4.8125 L 7.203125 -14.078125 L 2.90625 -4.8125 Z M 11.484375 -4.8125 "/></g></g></g><g fill="#e1e1e1" fill-opacity="1"><g transform="translate(158.435377, 18.937354)"><g><path d="M 10.609375 -7.515625 C 13.066406 -7.179688 14.296875 -5.953125 14.296875 -3.828125 C 14.296875 -2.585938 13.847656 -1.640625 12.953125 -0.984375 C 12.066406 -0.328125 10.75 0 9 0 L 2.78125 0 L 2.78125 -14.640625 L 8.578125 -14.640625 C 10.109375 -14.640625 11.3125 -14.320312 12.1875 -13.6875 C 13.0625 -13.050781 13.5 -12.132812 13.5 -10.9375 C 13.5 -10.019531 13.242188 -9.269531 12.734375 -8.6875 C 12.222656 -8.113281 11.515625 -7.722656 10.609375 -7.515625 Z M 3.203125 -14.25 L 3.203125 -7.640625 L 8.65625 -7.640625 C 10.070312 -7.640625 11.160156 -7.921875 11.921875 -8.484375 C 12.691406 -9.046875 13.078125 -9.863281 13.078125 -10.9375 C 13.078125 -12.007812 12.691406 -12.828125 11.921875 -13.390625 C 11.160156 -13.960938 10.070312 -14.25 8.65625 -14.25 Z M 9.078125 -0.390625 C 12.273438 -0.390625 13.875 -1.535156 13.875 -3.828125 C 13.875 -4.984375 13.472656 -5.835938 12.671875 -6.390625 C 11.867188 -6.953125 10.671875 -7.234375 9.078125 -7.234375 L 3.203125 -7.234375 L 3.203125 -0.390625 Z M 9.078125 -0.390625 "/></g></g></g><g clip-path="url(#e1cdfafe86)"><g transform="matrix(1, 0, 0, 1, 4, -0.000000000000003234)"><g clip-path="url(#5afa89a0f5)"><g clip-path="url(#f30f674332)"><g transform="matrix(1, 0, 0, 1, 0.000000000000000444, -0.000000000000003234)"><g clip-path="url(#968f1163d9)"><g clip-path="url(#7cde7a4a24)"><g mask="url(#05a9c385ce)"><g transform="matrix(1, 0, 0, 1, 0.000000000000000444, -0.000000000000003234)"><g clip-path="url(#e761aabaa2)"><g clip-path="url(#14890b5b26)"><path fill="url(#98363228c2)" d="M 0.636719 0.0585938 L 0.636719 67.027344 L 165.648438 67.027344 L 165.648438 0.0585938 Z M 0.636719 0.0585938 " fill-rule="nonzero"/></g></g></g></g></g></g></g></g></g></g></g><g fill="#e1e1e1" fill-opacity="1"><g transform="translate(38.193606, 218.957061)"><g><path d="M 6.359375 0.0625 C 5.296875 0.0625 4.296875 -0.128906 3.359375 -0.515625 C 2.429688 -0.898438 1.71875 -1.398438 1.21875 -2.015625 L 1.5 -2.28125 C 1.976562 -1.71875 2.65625 -1.25 3.53125 -0.875 C 4.414062 -0.507812 5.351562 -0.328125 6.34375 -0.328125 C 7.863281 -0.328125 9.007812 -0.628906 9.78125 -1.234375 C 10.550781 -1.847656 10.9375 -2.632812 10.9375 -3.59375 C 10.9375 -4.351562 10.734375 -4.953125 10.328125 -5.390625 C 9.929688 -5.835938 9.4375 -6.171875 8.84375 -6.390625 C 8.25 -6.617188 7.445312 -6.851562 6.4375 -7.09375 C 5.363281 -7.351562 4.515625 -7.601562 3.890625 -7.84375 C 3.265625 -8.09375 2.726562 -8.472656 2.28125 -8.984375 C 1.84375 -9.492188 1.625 -10.175781 1.625 -11.03125 C 1.625 -11.695312 1.796875 -12.304688 2.140625 -12.859375 C 2.492188 -13.421875 3.039062 -13.867188 3.78125 -14.203125 C 4.519531 -14.535156 5.4375 -14.703125 6.53125 -14.703125 C 7.3125 -14.703125 8.078125 -14.578125 8.828125 -14.328125 C 9.578125 -14.085938 10.226562 -13.769531 10.78125 -13.375 L 10.546875 -13.03125 C 9.972656 -13.445312 9.332031 -13.765625 8.625 -13.984375 C 7.925781 -14.203125 7.234375 -14.3125 6.546875 -14.3125 C 5.085938 -14.3125 3.972656 -14 3.203125 -13.375 C 2.429688 -12.757812 2.046875 -11.96875 2.046875 -11 C 2.046875 -10.25 2.25 -9.644531 2.65625 -9.1875 C 3.0625 -8.738281 3.5625 -8.398438 4.15625 -8.171875 C 4.757812 -7.953125 5.570312 -7.71875 6.59375 -7.46875 C 7.65625 -7.207031 8.5 -6.953125 9.125 -6.703125 C 9.75 -6.460938 10.273438 -6.09375 10.703125 -5.59375 C 11.140625 -5.101562 11.359375 -4.4375 11.359375 -3.59375 C 11.359375 -2.925781 11.175781 -2.3125 10.8125 -1.75 C 10.445312 -1.195312 9.890625 -0.753906 9.140625 -0.421875 C 8.398438 -0.0976562 7.472656 0.0625 6.359375 0.0625 Z M 6.359375 0.0625 "/></g></g></g><g fill="#e1e1e1" fill-opacity="1"><g transform="translate(53.904334, 218.957061)"><g><path d="M 8.75 0.0625 C 7.332031 0.0625 6.050781 -0.253906 4.90625 -0.890625 C 3.769531 -1.535156 2.875 -2.421875 2.21875 -3.546875 C 1.5625 -4.671875 1.234375 -5.929688 1.234375 -7.328125 C 1.234375 -8.722656 1.5625 -9.976562 2.21875 -11.09375 C 2.875 -12.21875 3.769531 -13.097656 4.90625 -13.734375 C 6.050781 -14.378906 7.332031 -14.703125 8.75 -14.703125 C 10.15625 -14.703125 11.429688 -14.378906 12.578125 -13.734375 C 13.722656 -13.097656 14.617188 -12.21875 15.265625 -11.09375 C 15.921875 -9.976562 16.25 -8.722656 16.25 -7.328125 C 16.25 -5.929688 15.921875 -4.671875 15.265625 -3.546875 C 14.617188 -2.421875 13.722656 -1.535156 12.578125 -0.890625 C 11.429688 -0.253906 10.15625 0.0625 8.75 0.0625 Z M 8.75 -0.328125 C 10.070312 -0.328125 11.269531 -0.628906 12.34375 -1.234375 C 13.425781 -1.847656 14.28125 -2.6875 14.90625 -3.75 C 15.53125 -4.820312 15.84375 -6.015625 15.84375 -7.328125 C 15.84375 -8.640625 15.53125 -9.828125 14.90625 -10.890625 C 14.28125 -11.953125 13.425781 -12.785156 12.34375 -13.390625 C 11.269531 -14.003906 10.070312 -14.3125 8.75 -14.3125 C 7.414062 -14.3125 6.207031 -14.003906 5.125 -13.390625 C 4.050781 -12.785156 3.203125 -11.953125 2.578125 -10.890625 C 1.960938 -9.828125 1.65625 -8.640625 1.65625 -7.328125 C 1.65625 -6.015625 1.960938 -4.820312 2.578125 -3.75 C 3.203125 -2.6875 4.050781 -1.847656 5.125 -1.234375 C 6.207031 -0.628906 7.414062 -0.328125 8.75 -0.328125 Z M 8.75 -0.328125 "/></g></g></g><g fill="#e1e1e1" fill-opacity="1"><g transform="translate(74.530902, 218.957061)"><g><path d="M 2.78125 -14.640625 L 3.203125 -14.640625 L 3.203125 -0.390625 L 11.921875 -0.390625 L 11.921875 0 L 2.78125 0 Z M 2.78125 -14.640625 "/></g></g></g><g fill="#e1e1e1" fill-opacity="1"><g transform="translate(89.802342, 218.957061)"><g><path d="M 8.3125 0.0625 C 6.519531 0.0625 5.128906 -0.457031 4.140625 -1.5 C 3.148438 -2.550781 2.65625 -4.09375 2.65625 -6.125 L 2.65625 -14.640625 L 3.078125 -14.640625 L 3.078125 -6.15625 C 3.078125 -4.226562 3.523438 -2.773438 4.421875 -1.796875 C 5.328125 -0.816406 6.625 -0.328125 8.3125 -0.328125 C 10 -0.328125 11.289062 -0.816406 12.1875 -1.796875 C 13.082031 -2.773438 13.53125 -4.226562 13.53125 -6.15625 L 13.53125 -14.640625 L 13.953125 -14.640625 L 13.953125 -6.125 C 13.953125 -4.09375 13.457031 -2.550781 12.46875 -1.5 C 11.476562 -0.457031 10.09375 0.0625 8.3125 0.0625 Z M 8.3125 0.0625 "/></g></g></g><g fill="#e1e1e1" fill-opacity="1"><g transform="translate(109.550336, 218.957061)"><g><path d="M 5.515625 -14.25 L 0.078125 -14.25 L 0.078125 -14.640625 L 11.375 -14.640625 L 11.375 -14.25 L 5.9375 -14.25 L 5.9375 0 L 5.515625 0 Z M 5.515625 -14.25 "/></g></g></g><g fill="#e1e1e1" fill-opacity="1"><g transform="translate(124.152391, 218.957061)"><g><path d="M 2.78125 -14.640625 L 3.203125 -14.640625 L 3.203125 0 L 2.78125 0 Z M 2.78125 -14.640625 "/></g></g></g><g fill="#e1e1e1" fill-opacity="1"><g transform="translate(133.273808, 218.957061)"><g><path d="M 8.75 0.0625 C 7.332031 0.0625 6.050781 -0.253906 4.90625 -0.890625 C 3.769531 -1.535156 2.875 -2.421875 2.21875 -3.546875 C 1.5625 -4.671875 1.234375 -5.929688 1.234375 -7.328125 C 1.234375 -8.722656 1.5625 -9.976562 2.21875 -11.09375 C 2.875 -12.21875 3.769531 -13.097656 4.90625 -13.734375 C 6.050781 -14.378906 7.332031 -14.703125 8.75 -14.703125 C 10.15625 -14.703125 11.429688 -14.378906 12.578125 -13.734375 C 13.722656 -13.097656 14.617188 -12.21875 15.265625 -11.09375 C 15.921875 -9.976562 16.25 -8.722656 16.25 -7.328125 C 16.25 -5.929688 15.921875 -4.671875 15.265625 -3.546875 C 14.617188 -2.421875 13.722656 -1.535156 12.578125 -0.890625 C 11.429688 -0.253906 10.15625 0.0625 8.75 0.0625 Z M 8.75 -0.328125 C 10.070312 -0.328125 11.269531 -0.628906 12.34375 -1.234375 C 13.425781 -1.847656 14.28125 -2.6875 14.90625 -3.75 C 15.53125 -4.820312 15.84375 -6.015625 15.84375 -7.328125 C 15.84375 -8.640625 15.53125 -9.828125 14.90625 -10.890625 C 14.28125 -11.953125 13.425781 -12.785156 12.34375 -13.390625 C 11.269531 -14.003906 10.070312 -14.3125 8.75 -14.3125 C 7.414062 -14.3125 6.207031 -14.003906 5.125 -13.390625 C 4.050781 -12.785156 3.203125 -11.953125 2.578125 -10.890625 C 1.960938 -9.828125 1.65625 -8.640625 1.65625 -7.328125 C 1.65625 -6.015625 1.960938 -4.820312 2.578125 -3.75 C 3.203125 -2.6875 4.050781 -1.847656 5.125 -1.234375 C 6.207031 -0.628906 7.414062 -0.328125 8.75 -0.328125 Z M 8.75 -0.328125 "/></g></g></g><g fill="#e1e1e1" fill-opacity="1"><g transform="translate(153.900376, 218.957061)"><g><path d="M 14.296875 -14.640625 L 14.296875 0 L 13.9375 0 L 3.203125 -13.875 L 3.203125 0 L 2.78125 0 L 2.78125 -14.640625 L 3.140625 -14.640625 L 13.875 -0.78125 L 13.875 -14.640625 Z M 14.296875 -14.640625 "/></g></g></g><g fill="#e1e1e1" fill-opacity="1"><g transform="translate(174.108578, 218.957061)"><g><path d="M 6.359375 0.0625 C 5.296875 0.0625 4.296875 -0.128906 3.359375 -0.515625 C 2.429688 -0.898438 1.71875 -1.398438 1.21875 -2.015625 L 1.5 -2.28125 C 1.976562 -1.71875 2.65625 -1.25 3.53125 -0.875 C 4.414062 -0.507812 5.351562 -0.328125 6.34375 -0.328125 C 7.863281 -0.328125 9.007812 -0.628906 9.78125 -1.234375 C 10.550781 -1.847656 10.9375 -2.632812 10.9375 -3.59375 C 10.9375 -4.351562 10.734375 -4.953125 10.328125 -5.390625 C 9.929688 -5.835938 9.4375 -6.171875 8.84375 -6.390625 C 8.25 -6.617188 7.445312 -6.851562 6.4375 -7.09375 C 5.363281 -7.351562 4.515625 -7.601562 3.890625 -7.84375 C 3.265625 -8.09375 2.726562 -8.472656 2.28125 -8.984375 C 1.84375 -9.492188 1.625 -10.175781 1.625 -11.03125 C 1.625 -11.695312 1.796875 -12.304688 2.140625 -12.859375 C 2.492188 -13.421875 3.039062 -13.867188 3.78125 -14.203125 C 4.519531 -14.535156 5.4375 -14.703125 6.53125 -14.703125 C 7.3125 -14.703125 8.078125 -14.578125 8.828125 -14.328125 C 9.578125 -14.085938 10.226562 -13.769531 10.78125 -13.375 L 10.546875 -13.03125 C 9.972656 -13.445312 9.332031 -13.765625 8.625 -13.984375 C 7.925781 -14.203125 7.234375 -14.3125 6.546875 -14.3125 C 5.085938 -14.3125 3.972656 -14 3.203125 -13.375 C 2.429688 -12.757812 2.046875 -11.96875 2.046875 -11 C 2.046875 -10.25 2.25 -9.644531 2.65625 -9.1875 C 3.0625 -8.738281 3.5625 -8.398438 4.15625 -8.171875 C 4.757812 -7.953125 5.570312 -7.71875 6.59375 -7.46875 C 7.65625 -7.207031 8.5 -6.953125 9.125 -6.703125 C 9.75 -6.460938 10.273438 -6.09375 10.703125 -5.59375 C 11.140625 -5.101562 11.359375 -4.4375 11.359375 -3.59375 C 11.359375 -2.925781 11.175781 -2.3125 10.8125 -1.75 C 10.445312 -1.195312 9.890625 -0.753906 9.140625 -0.421875 C 8.398438 -0.0976562 7.472656 0.0625 6.359375 0.0625 Z M 6.359375 0.0625 "/></g></g></g><g clip-path="url(#56ac8b5d9b)"><g transform="matrix(1, 0, 0, 1, 0, -0.000000000000003234)"><g clip-path="url(#2f4855f351)"><g clip-path="url(#6bcc8ef0f6)"><g transform="matrix(1, 0, 0, 1, 0, -0.000000000000003234)"><g clip-path="url(#6da2eb45d1)"><g clip-path="url(#5b96c05100)"><g mask="url(#16be315761)"><g transform="matrix(1, 0, 0, 1, 0, -0.000000000000003234)"><g clip-path="url(#0d1701455b)"><g clip-path="url(#60462b9c3c)"><path fill="url(#b85a8a504e)" d="M 0 0.0585938 L 0 224.941406 L 224.761719 224.941406 L 224.761719 0.0585938 Z M 0 0.0585938 " fill-rule="nonzero"/></g></g></g></g></g></g></g></g></g></g></g></svg>