<svg xmlns="http://www.w3.org/2000/svg" xmlns:xlink="http://www.w3.org/1999/xlink" width="300" zoomAndPan="magnify" viewBox="0 0 224.87999 225" height="300" preserveAspectRatio="xMidYMid meet" version="1.0"><defs><filter x="0%" y="0%" width="100%" height="100%" id="2cb150a009"><feColorMatrix values="0 0 0 0 1 0 0 0 0 1 0 0 0 0 1 0 0 0 1 0" color-interpolation-filters="sRGB"/></filter><g/><clipPath id="d22594c7ac"><path d="M 0 0.0585938 L 224.761719 0.0585938 L 224.761719 224.9375 L 0 224.9375 Z M 0 0.0585938 " clip-rule="nonzero"/></clipPath><clipPath id="dcd3e9137f"><path d="M 206.140625 224.941406 L 18.738281 224.941406 C 13.769531 224.941406 9.003906 222.964844 5.488281 219.453125 C 1.972656 215.9375 0 211.171875 0 206.199219 L 0 18.800781 C 0 13.828125 1.972656 9.0625 5.488281 5.550781 C 9.003906 2.035156 13.769531 0.0585938 18.738281 0.0585938 L 206.140625 0.0585938 C 211.109375 0.0585938 215.875 2.035156 219.390625 5.550781 C 222.90625 9.0625 224.878906 13.828125 224.878906 18.800781 L 224.878906 206.199219 C 224.878906 211.171875 222.90625 215.9375 219.390625 219.453125 C 215.875 222.964844 211.109375 224.941406 206.140625 224.941406 Z M 206.140625 224.941406 " clip-rule="nonzero"/></clipPath><clipPath id="9f5fb8f971"><path d="M 0 0.0585938 L 224.761719 0.0585938 L 224.761719 224.9375 L 0 224.9375 Z M 0 0.0585938 " clip-rule="nonzero"/></clipPath><clipPath id="58e4239f9f"><path d="M 206.140625 224.941406 L 18.738281 224.941406 C 13.769531 224.941406 9.003906 222.964844 5.488281 219.453125 C 1.972656 215.9375 0 211.171875 0 206.199219 L 0 18.800781 C 0 13.828125 1.972656 9.0625 5.488281 5.550781 C 9.003906 2.035156 13.769531 0.0585938 18.738281 0.0585938 L 206.140625 0.0585938 C 211.109375 0.0585938 215.875 2.035156 219.390625 5.550781 C 222.90625 9.0625 224.878906 13.828125 224.878906 18.800781 L 224.878906 206.199219 C 224.878906 211.171875 222.90625 215.9375 219.390625 219.453125 C 215.875 222.964844 211.109375 224.941406 206.140625 224.941406 Z M 206.140625 224.941406 " clip-rule="nonzero"/></clipPath><clipPath id="c7ff633867"><rect x="0" width="225" y="0" height="225"/></clipPath><clipPath id="1ecdafb090"><rect x="0" width="174" y="0" height="87"/></clipPath><clipPath id="be272ee60a"><path d="M 0 0.0585938 L 224.761719 0.0585938 L 224.761719 197 L 0 197 Z M 0 0.0585938 " clip-rule="nonzero"/></clipPath><clipPath id="afd2990c27"><path d="M 0 0.0585938 L 224.761719 0.0585938 L 224.761719 195.644531 L 0 195.644531 Z M 0 0.0585938 " clip-rule="nonzero"/></clipPath><clipPath id="621efd124e"><path d="M 0 0.0585938 L 224.761719 0.0585938 L 224.761719 195.644531 L 0 195.644531 Z M 0 0.0585938 " clip-rule="nonzero"/></clipPath><clipPath id="d21edb3b4c"><path d="M 0 0.0585938 L 224.761719 0.0585938 L 224.761719 166.671875 L 0 166.671875 Z M 0 0.0585938 " clip-rule="nonzero"/></clipPath><linearGradient x1="15.999749" gradientTransform="matrix(0.439204, 0, 0, 0.438684, 24.152242, -6.686955)" y1="-55.610449" x2="461.770006" gradientUnits="userSpaceOnUse" y2="390.161495" id="7ea9f592b0"><stop stop-opacity="1" stop-color="rgb(0%, 70.588684%, 63.139343%)" offset="0"/><stop stop-opacity="1" stop-color="rgb(0.00915527%, 70.559692%, 63.20343%)" offset="0.125"/><stop stop-opacity="1" stop-color="rgb(0.0396729%, 70.474243%, 63.397217%)" offset="0.140625"/><stop stop-opacity="1" stop-color="rgb(0.0823975%, 70.359802%, 63.658142%)" offset="0.15625"/><stop stop-opacity="1" stop-color="rgb(0.123596%, 70.245361%, 63.919067%)" offset="0.171875"/><stop stop-opacity="1" stop-color="rgb(0.166321%, 70.129395%, 64.179993%)" offset="0.1875"/><stop stop-opacity="1" stop-color="rgb(0.20752%, 70.014954%, 64.440918%)" offset="0.203125"/><stop stop-opacity="1" stop-color="rgb(0.248718%, 69.900513%, 64.701843%)" offset="0.21875"/><stop stop-opacity="1" stop-color="rgb(0.291443%, 69.784546%, 64.962769%)" offset="0.234375"/><stop stop-opacity="1" stop-color="rgb(0.332642%, 69.670105%, 65.223694%)" offset="0.25"/><stop stop-opacity="1" stop-color="rgb(0.37384%, 69.554138%, 65.484619%)" offset="0.265625"/><stop stop-opacity="1" stop-color="rgb(0.416565%, 69.439697%, 65.745544%)" offset="0.28125"/><stop stop-opacity="1" stop-color="rgb(0.457764%, 69.325256%, 66.00647%)" offset="0.296875"/><stop stop-opacity="1" stop-color="rgb(0.500488%, 69.20929%, 66.267395%)" offset="0.3125"/><stop stop-opacity="1" stop-color="rgb(0.541687%, 69.094849%, 66.52832%)" offset="0.328125"/><stop stop-opacity="1" stop-color="rgb(0.582886%, 68.978882%, 66.789246%)" offset="0.34375"/><stop stop-opacity="1" stop-color="rgb(0.62561%, 68.864441%, 67.050171%)" offset="0.359375"/><stop stop-opacity="1" stop-color="rgb(0.666809%, 68.75%, 67.311096%)" offset="0.375"/><stop stop-opacity="1" stop-color="rgb(0.709534%, 68.634033%, 67.572021%)" offset="0.390625"/><stop stop-opacity="1" stop-color="rgb(0.750732%, 68.519592%, 67.832947%)" offset="0.40625"/><stop stop-opacity="1" stop-color="rgb(0.791931%, 68.405151%, 68.093872%)" offset="0.421875"/><stop stop-opacity="1" stop-color="rgb(0.834656%, 68.289185%, 68.354797%)" offset="0.426002"/><stop stop-opacity="1" stop-color="rgb(0.856018%, 68.232727%, 68.486023%)" offset="0.4375"/><stop stop-opacity="1" stop-color="rgb(0.875854%, 68.174744%, 68.615723%)" offset="0.453125"/><stop stop-opacity="1" stop-color="rgb(0.918579%, 68.058777%, 68.876648%)" offset="0.46875"/><stop stop-opacity="1" stop-color="rgb(0.959778%, 67.944336%, 69.137573%)" offset="0.484375"/><stop stop-opacity="1" stop-color="rgb(1.000977%, 67.829895%, 69.398499%)" offset="0.5"/><stop stop-opacity="1" stop-color="rgb(1.043701%, 67.713928%, 69.659424%)" offset="0.515625"/><stop stop-opacity="1" stop-color="rgb(1.0849%, 67.599487%, 69.920349%)" offset="0.53125"/><stop stop-opacity="1" stop-color="rgb(1.127625%, 67.485046%, 70.181274%)" offset="0.546875"/><stop stop-opacity="1" stop-color="rgb(1.168823%, 67.36908%, 70.4422%)" offset="0.5625"/><stop stop-opacity="1" stop-color="rgb(1.210022%, 67.254639%, 70.703125%)" offset="0.573998"/><stop stop-opacity="1" stop-color="rgb(1.231384%, 67.196655%, 70.834351%)" offset="0.578125"/><stop stop-opacity="1" stop-color="rgb(1.252747%, 67.138672%, 70.96405%)" offset="0.59375"/><stop stop-opacity="1" stop-color="rgb(1.293945%, 67.024231%, 71.224976%)" offset="0.609375"/><stop stop-opacity="1" stop-color="rgb(1.33667%, 66.90979%, 71.485901%)" offset="0.625"/><stop stop-opacity="1" stop-color="rgb(1.377869%, 66.793823%, 71.746826%)" offset="0.640625"/><stop stop-opacity="1" stop-color="rgb(1.419067%, 66.679382%, 72.007751%)" offset="0.65625"/><stop stop-opacity="1" stop-color="rgb(1.461792%, 66.564941%, 72.268677%)" offset="0.671875"/><stop stop-opacity="1" stop-color="rgb(1.502991%, 66.448975%, 72.529602%)" offset="0.6875"/><stop stop-opacity="1" stop-color="rgb(1.545715%, 66.329956%, 72.799683%)" offset="0.75"/><stop stop-opacity="1" stop-color="rgb(1.568604%, 66.268921%, 72.938538%)" offset="1"/></linearGradient><clipPath id="e3e42f63be"><rect x="0" width="225" y="0" height="196"/></clipPath><clipPath id="b16d083617"><path d="M 0 0.0585938 L 224.761719 0.0585938 L 224.761719 195.644531 L 0 195.644531 Z M 0 0.0585938 " clip-rule="nonzero"/></clipPath><clipPath id="c77f02521b"><rect x="0" width="225" y="0" height="196"/></clipPath><clipPath id="1cf138ad56"><rect x="0" width="225" y="0" height="196"/></clipPath><mask id="b93056c5f7"><g filter="url(#2cb150a009)"><g transform="matrix(1, 0, 0, 1, 0, -0.000000000000003234)"><g clip-path="url(#1cf138ad56)"><g clip-path="url(#b16d083617)"><g transform="matrix(1, 0, 0, 1, 0, -0.000000000000003234)"><g clip-path="url(#c77f02521b)"><g fill="#000000" fill-opacity="1"><g transform="translate(24.026118, 65.267926)"><g><path d="M 12.0625 -24.625 L 12.0625 -17.703125 L 25.984375 -17.703125 L 25.984375 -10.8125 L 12.0625 -10.8125 L 12.0625 0 L 3.15625 0 L 3.15625 -31.515625 L 27.875 -31.515625 L 27.875 -24.625 Z M 12.0625 -24.625 "/></g></g></g><g fill="#000000" fill-opacity="1"><g transform="translate(59.690088, 65.267926)"><g><path d="M 3.15625 -31.515625 L 12.0625 -31.515625 L 12.0625 -7.0625 L 27.109375 -7.0625 L 27.109375 0 L 3.15625 0 Z M 3.15625 -31.515625 "/></g></g></g><g fill="#000000" fill-opacity="1"><g transform="translate(93.913118, 65.267926)"><g><path d="M 19.046875 0.625 C 15.710938 0.625 12.71875 -0.078125 10.0625 -1.484375 C 7.40625 -2.898438 5.316406 -4.851562 3.796875 -7.34375 C 2.285156 -9.832031 1.53125 -12.640625 1.53125 -15.765625 C 1.53125 -18.878906 2.285156 -21.679688 3.796875 -24.171875 C 5.316406 -26.671875 7.40625 -28.625 10.0625 -30.03125 C 12.71875 -31.445312 15.710938 -32.15625 19.046875 -32.15625 C 22.378906 -32.15625 25.375 -31.445312 28.03125 -30.03125 C 30.6875 -28.625 32.769531 -26.671875 34.28125 -24.171875 C 35.800781 -21.679688 36.5625 -18.878906 36.5625 -15.765625 C 36.5625 -12.640625 35.800781 -9.832031 34.28125 -7.34375 C 32.769531 -4.851562 30.6875 -2.898438 28.03125 -1.484375 C 25.375 -0.078125 22.378906 0.625 19.046875 0.625 Z M 19.046875 -6.75 C 20.640625 -6.75 22.082031 -7.125 23.375 -7.875 C 24.664062 -8.625 25.6875 -9.679688 26.4375 -11.046875 C 27.1875 -12.421875 27.5625 -13.992188 27.5625 -15.765625 C 27.5625 -17.535156 27.1875 -19.101562 26.4375 -20.46875 C 25.6875 -21.832031 24.664062 -22.890625 23.375 -23.640625 C 22.082031 -24.390625 20.640625 -24.765625 19.046875 -24.765625 C 17.453125 -24.765625 16.007812 -24.390625 14.71875 -23.640625 C 13.425781 -22.890625 12.40625 -21.832031 11.65625 -20.46875 C 10.90625 -19.101562 10.53125 -17.535156 10.53125 -15.765625 C 10.53125 -13.992188 10.90625 -12.421875 11.65625 -11.046875 C 12.40625 -9.679688 13.425781 -8.625 14.71875 -7.875 C 16.007812 -7.125 17.453125 -6.75 19.046875 -6.75 Z M 19.046875 -6.75 "/></g></g></g><g fill="#000000" fill-opacity="1"><g transform="translate(138.763082, 65.267926)"><g><path d="M 52.59375 -31.515625 L 42.375 0 L 32.828125 0 L 26.796875 -19.1875 L 20.484375 0 L 10.9375 0 L 0.71875 -31.515625 L 9.90625 -31.515625 L 16.25 -11.390625 L 22.921875 -31.515625 L 31.109375 -31.515625 L 37.46875 -11.21875 L 44.078125 -31.515625 Z M 52.59375 -31.515625 "/></g></g></g></g></g></g></g></g></g></mask><clipPath id="3994d65d90"><path d="M 0 0.0585938 L 224.761719 0.0585938 L 224.761719 166.671875 L 0 166.671875 Z M 0 0.0585938 " clip-rule="nonzero"/></clipPath><clipPath id="0a8c112624"><rect x="0" width="225" y="0" height="196"/></clipPath><clipPath id="48675285de"><rect x="0" width="225" y="0" height="196"/></clipPath><clipPath id="48ffc8436a"><rect x="0" width="225" y="0" height="197"/></clipPath><clipPath id="061335ed1f"><path d="M 22.488281 169.304688 L 202.390625 169.304688 L 202.390625 202.289062 L 22.488281 202.289062 Z M 22.488281 169.304688 " clip-rule="nonzero"/></clipPath><clipPath id="ca7be139aa"><path d="M 39.0625 169.304688 L 185.820312 169.304688 C 194.972656 169.304688 202.390625 176.726562 202.390625 185.878906 C 202.390625 195.03125 194.972656 202.453125 185.820312 202.453125 L 39.0625 202.453125 C 29.910156 202.453125 22.488281 195.03125 22.488281 185.878906 C 22.488281 176.726562 29.910156 169.304688 39.0625 169.304688 Z M 39.0625 169.304688 " clip-rule="nonzero"/></clipPath><linearGradient x1="40.978003" gradientTransform="matrix(1.194413, 0, 0, 1.194413, 0.000474583, -0.00000312579)" y1="-40.977999" x2="159.864428" gradientUnits="userSpaceOnUse" y2="77.908434" id="5d9ff32136"><stop stop-opacity="1" stop-color="rgb(0%, 70.588684%, 63.139343%)" offset="0"/><stop stop-opacity="1" stop-color="rgb(0.0244141%, 70.521545%, 63.291931%)" offset="0.03125"/><stop stop-opacity="1" stop-color="rgb(0.0732422%, 70.387268%, 63.597107%)" offset="0.0625"/><stop stop-opacity="1" stop-color="rgb(0.12207%, 70.251465%, 63.903809%)" offset="0.09375"/><stop stop-opacity="1" stop-color="rgb(0.170898%, 70.117188%, 64.21051%)" offset="0.125"/><stop stop-opacity="1" stop-color="rgb(0.219727%, 69.981384%, 64.515686%)" offset="0.15493"/><stop stop-opacity="1" stop-color="rgb(0.244141%, 69.914246%, 64.6698%)" offset="0.15625"/><stop stop-opacity="1" stop-color="rgb(0.268555%, 69.847107%, 64.822388%)" offset="0.1875"/><stop stop-opacity="1" stop-color="rgb(0.317383%, 69.71283%, 65.127563%)" offset="0.21875"/><stop stop-opacity="1" stop-color="rgb(0.366211%, 69.577026%, 65.434265%)" offset="0.25"/><stop stop-opacity="1" stop-color="rgb(0.416565%, 69.442749%, 65.739441%)" offset="0.28125"/><stop stop-opacity="1" stop-color="rgb(0.465393%, 69.306946%, 66.046143%)" offset="0.3125"/><stop stop-opacity="1" stop-color="rgb(0.514221%, 69.172668%, 66.351318%)" offset="0.34375"/><stop stop-opacity="1" stop-color="rgb(0.563049%, 69.036865%, 66.65802%)" offset="0.375"/><stop stop-opacity="1" stop-color="rgb(0.611877%, 68.902588%, 66.964722%)" offset="0.40625"/><stop stop-opacity="1" stop-color="rgb(0.660706%, 68.768311%, 67.269897%)" offset="0.4375"/><stop stop-opacity="1" stop-color="rgb(0.709534%, 68.632507%, 67.576599%)" offset="0.46875"/><stop stop-opacity="1" stop-color="rgb(0.758362%, 68.49823%, 67.881775%)" offset="0.5"/><stop stop-opacity="1" stop-color="rgb(0.808716%, 68.362427%, 68.188477%)" offset="0.53125"/><stop stop-opacity="1" stop-color="rgb(0.857544%, 68.228149%, 68.493652%)" offset="0.5625"/><stop stop-opacity="1" stop-color="rgb(0.906372%, 68.093872%, 68.800354%)" offset="0.59375"/><stop stop-opacity="1" stop-color="rgb(0.9552%, 67.958069%, 69.10553%)" offset="0.625"/><stop stop-opacity="1" stop-color="rgb(1.004028%, 67.823792%, 69.412231%)" offset="0.65625"/><stop stop-opacity="1" stop-color="rgb(1.052856%, 67.687988%, 69.717407%)" offset="0.6875"/><stop stop-opacity="1" stop-color="rgb(1.101685%, 67.553711%, 70.024109%)" offset="0.71875"/><stop stop-opacity="1" stop-color="rgb(1.150513%, 67.419434%, 70.330811%)" offset="0.75"/><stop stop-opacity="1" stop-color="rgb(1.200867%, 67.28363%, 70.635986%)" offset="0.78125"/><stop stop-opacity="1" stop-color="rgb(1.249695%, 67.149353%, 70.942688%)" offset="0.8125"/><stop stop-opacity="1" stop-color="rgb(1.298523%, 67.01355%, 71.247864%)" offset="0.84375"/><stop stop-opacity="1" stop-color="rgb(1.347351%, 66.879272%, 71.554565%)" offset="0.84507"/><stop stop-opacity="1" stop-color="rgb(1.371765%, 66.812134%, 71.707153%)" offset="0.875"/><stop stop-opacity="1" stop-color="rgb(1.396179%, 66.744995%, 71.859741%)" offset="0.90625"/><stop stop-opacity="1" stop-color="rgb(1.445007%, 66.609192%, 72.166443%)" offset="0.9375"/><stop stop-opacity="1" stop-color="rgb(1.493835%, 66.474915%, 72.471619%)" offset="0.96875"/><stop stop-opacity="1" stop-color="rgb(1.542664%, 66.339111%, 72.77832%)" offset="1"/></linearGradient></defs><g clip-path="url(#d22594c7ac)"><g clip-path="url(#dcd3e9137f)"><g transform="matrix(1, 0, 0, 1, 0, -0.000000000000003234)"><g clip-path="url(#c7ff633867)"><g clip-path="url(#9f5fb8f971)"><g clip-path="url(#58e4239f9f)"><path fill="#1f2632" d="M 224.878906 224.941406 L 0 224.941406 L 0 0.0585938 L 224.878906 0.0585938 Z M 224.878906 224.941406 " fill-opacity="1" fill-rule="nonzero"/></g></g></g></g></g></g><g transform="matrix(1, 0, 0, 1, 23, 79)"><g clip-path="url(#1ecdafb090)"><g fill="#e1e1e1" fill-opacity="1"><g transform="translate(1.026118, 68.437541)"><g><path d="M 9.328125 -49.0625 L 10.71875 -49.0625 L 10.71875 -1.328125 L 39.9375 -1.328125 L 39.9375 0 L 9.328125 0 Z M 9.328125 -49.0625 "/></g></g></g><g fill="#e1e1e1" fill-opacity="1"><g transform="translate(52.182179, 68.437541)"><g><path d="M 39.109375 -14.78125 L 9.109375 -14.78125 L 2.25 0 L 0.625 0 L 23.40625 -49.0625 L 24.8125 -49.0625 L 47.578125 0 L 45.96875 0 Z M 38.46875 -16.125 L 24.109375 -47.15625 L 9.734375 -16.125 Z M 38.46875 -16.125 "/></g></g></g><g fill="#e1e1e1" fill-opacity="1"><g transform="translate(110.906373, 68.437541)"><g><path d="M 35.53125 -25.15625 C 43.75 -24.03125 47.859375 -19.921875 47.859375 -12.828125 C 47.859375 -8.671875 46.375 -5.492188 43.40625 -3.296875 C 40.445312 -1.097656 36.023438 0 30.140625 0 L 9.328125 0 L 9.328125 -49.0625 L 28.734375 -49.0625 C 33.867188 -49.0625 37.894531 -47.992188 40.8125 -45.859375 C 43.738281 -43.734375 45.203125 -40.664062 45.203125 -36.65625 C 45.203125 -33.570312 44.347656 -31.054688 42.640625 -29.109375 C 40.929688 -27.171875 38.5625 -25.851562 35.53125 -25.15625 Z M 10.71875 -47.71875 L 10.71875 -25.578125 L 29.015625 -25.578125 C 33.734375 -25.578125 37.375 -26.519531 39.9375 -28.40625 C 42.507812 -30.300781 43.796875 -33.050781 43.796875 -36.65625 C 43.796875 -40.25 42.507812 -42.988281 39.9375 -44.875 C 37.375 -46.769531 33.734375 -47.71875 29.015625 -47.71875 Z M 30.40625 -1.328125 C 41.113281 -1.328125 46.46875 -5.160156 46.46875 -12.828125 C 46.46875 -16.703125 45.125 -19.570312 42.4375 -21.4375 C 39.75 -23.3125 35.738281 -24.25 30.40625 -24.25 L 10.71875 -24.25 L 10.71875 -1.328125 Z M 30.40625 -1.328125 "/></g></g></g></g></g><g clip-path="url(#be272ee60a)"><g transform="matrix(1, 0, 0, 1, 0, -0.000000000000003234)"><g clip-path="url(#48ffc8436a)"><g clip-path="url(#afd2990c27)"><g transform="matrix(1, 0, 0, 1, 0, -0.000000000000003234)"><g clip-path="url(#48675285de)"><g clip-path="url(#621efd124e)"><g mask="url(#b93056c5f7)"><g transform="matrix(1, 0, 0, 1, 0, -0.000000000000003234)"><g clip-path="url(#0a8c112624)"><g clip-path="url(#3994d65d90)"><path fill="url(#7ea9f592b0)" d="M 0 0.0585938 L 0 166.671875 L 224.761719 166.671875 L 224.761719 0.0585938 Z M 0 0.0585938 " fill-rule="nonzero"/></g></g></g></g></g></g></g></g></g></g></g><g clip-path="url(#061335ed1f)"><g clip-path="url(#ca7be139aa)"><path stroke-linecap="butt" transform="matrix(0.7496, 0, 0, 0.7496, 22.487998, 169.305494)" fill="none" stroke-linejoin="miter" d="M 22.111132 -0.00107642 L 217.892661 -0.00107642 C 230.1023 -0.00107642 239.998204 9.900039 239.998204 22.109678 C 239.998204 34.319316 230.1023 44.220432 217.892661 44.220432 L 22.111132 44.220432 C 9.901493 44.220432 0.000377784 34.319316 0.000377784 22.109678 C 0.000377784 9.900039 9.901493 -0.00107642 22.111132 -0.00107642 Z M 22.111132 -0.00107642 " stroke="url(#5d9ff32136)" stroke-width="8" stroke-miterlimit="4"/></g></g><g fill="#e1e1e1" fill-opacity="1"><g transform="translate(55.05343, 191.043893)"><g><path d="M 4.90625 0.09375 C 4.070312 0.09375 3.273438 -0.0351562 2.515625 -0.296875 C 1.753906 -0.566406 1.164062 -0.921875 0.75 -1.359375 L 1.21875 -2.265625 C 1.625 -1.859375 2.160156 -1.53125 2.828125 -1.28125 C 3.503906 -1.03125 4.195312 -0.90625 4.90625 -0.90625 C 5.90625 -0.90625 6.65625 -1.085938 7.15625 -1.453125 C 7.65625 -1.828125 7.90625 -2.304688 7.90625 -2.890625 C 7.90625 -3.335938 7.769531 -3.691406 7.5 -3.953125 C 7.226562 -4.222656 6.894531 -4.429688 6.5 -4.578125 C 6.113281 -4.722656 5.566406 -4.878906 4.859375 -5.046875 C 4.015625 -5.265625 3.34375 -5.472656 2.84375 -5.671875 C 2.34375 -5.867188 1.910156 -6.164062 1.546875 -6.5625 C 1.191406 -6.96875 1.015625 -7.519531 1.015625 -8.21875 C 1.015625 -8.78125 1.164062 -9.289062 1.46875 -9.75 C 1.769531 -10.21875 2.226562 -10.585938 2.84375 -10.859375 C 3.457031 -11.140625 4.222656 -11.28125 5.140625 -11.28125 C 5.785156 -11.28125 6.410156 -11.191406 7.015625 -11.015625 C 7.628906 -10.835938 8.160156 -10.597656 8.609375 -10.296875 L 8.21875 -9.34375 C 7.75 -9.65625 7.25 -9.890625 6.71875 -10.046875 C 6.1875 -10.203125 5.660156 -10.28125 5.140625 -10.28125 C 4.160156 -10.28125 3.421875 -10.085938 2.921875 -9.703125 C 2.429688 -9.328125 2.1875 -8.84375 2.1875 -8.25 C 2.1875 -7.800781 2.320312 -7.441406 2.59375 -7.171875 C 2.863281 -6.898438 3.203125 -6.691406 3.609375 -6.546875 C 4.023438 -6.398438 4.582031 -6.242188 5.28125 -6.078125 C 6.09375 -5.867188 6.753906 -5.664062 7.265625 -5.46875 C 7.773438 -5.269531 8.203125 -4.972656 8.546875 -4.578125 C 8.898438 -4.179688 9.078125 -3.640625 9.078125 -2.953125 C 9.078125 -2.390625 8.925781 -1.875 8.625 -1.40625 C 8.320312 -0.945312 7.851562 -0.582031 7.21875 -0.3125 C 6.59375 -0.0390625 5.820312 0.09375 4.90625 0.09375 Z M 4.90625 0.09375 "/></g></g></g><g fill="#e1e1e1" fill-opacity="1"><g transform="translate(67.284528, 191.043893)"><g><path d="M 6.71875 0.09375 C 5.601562 0.09375 4.59375 -0.148438 3.6875 -0.640625 C 2.789062 -1.140625 2.085938 -1.820312 1.578125 -2.6875 C 1.078125 -3.550781 0.828125 -4.519531 0.828125 -5.59375 C 0.828125 -6.664062 1.078125 -7.632812 1.578125 -8.5 C 2.085938 -9.363281 2.789062 -10.039062 3.6875 -10.53125 C 4.59375 -11.03125 5.601562 -11.28125 6.71875 -11.28125 C 7.820312 -11.28125 8.816406 -11.035156 9.703125 -10.546875 C 10.597656 -10.054688 11.300781 -9.375 11.8125 -8.5 C 12.320312 -7.632812 12.578125 -6.664062 12.578125 -5.59375 C 12.578125 -4.519531 12.320312 -3.546875 11.8125 -2.671875 C 11.300781 -1.804688 10.597656 -1.128906 9.703125 -0.640625 C 8.816406 -0.148438 7.820312 0.09375 6.71875 0.09375 Z M 6.71875 -0.953125 C 7.601562 -0.953125 8.398438 -1.148438 9.109375 -1.546875 C 9.828125 -1.953125 10.382812 -2.507812 10.78125 -3.21875 C 11.1875 -3.925781 11.390625 -4.71875 11.390625 -5.59375 C 11.390625 -6.46875 11.1875 -7.257812 10.78125 -7.96875 C 10.382812 -8.675781 9.828125 -9.226562 9.109375 -9.625 C 8.398438 -10.03125 7.601562 -10.234375 6.71875 -10.234375 C 5.832031 -10.234375 5.03125 -10.03125 4.3125 -9.625 C 3.59375 -9.226562 3.023438 -8.675781 2.609375 -7.96875 C 2.203125 -7.257812 2 -6.46875 2 -5.59375 C 2 -4.71875 2.203125 -3.925781 2.609375 -3.21875 C 3.023438 -2.507812 3.59375 -1.953125 4.3125 -1.546875 C 5.03125 -1.148438 5.832031 -0.953125 6.71875 -0.953125 Z M 6.71875 -0.953125 "/></g></g></g><g fill="#e1e1e1" fill-opacity="1"><g transform="translate(83.096847, 191.043893)"><g><path d="M 1.828125 -11.1875 L 3 -11.1875 L 3 -1.015625 L 9.265625 -1.015625 L 9.265625 0 L 1.828125 0 Z M 1.828125 -11.1875 "/></g></g></g><g fill="#e1e1e1" fill-opacity="1"><g transform="translate(94.912265, 191.043893)"><g><path d="M 6.328125 0.09375 C 4.878906 0.09375 3.75 -0.316406 2.9375 -1.140625 C 2.125 -1.972656 1.71875 -3.1875 1.71875 -4.78125 L 1.71875 -11.1875 L 2.90625 -11.1875 L 2.90625 -4.828125 C 2.90625 -3.523438 3.195312 -2.550781 3.78125 -1.90625 C 4.375 -1.269531 5.222656 -0.953125 6.328125 -0.953125 C 7.453125 -0.953125 8.304688 -1.269531 8.890625 -1.90625 C 9.472656 -2.550781 9.765625 -3.523438 9.765625 -4.828125 L 9.765625 -11.1875 L 10.921875 -11.1875 L 10.921875 -4.78125 C 10.921875 -3.1875 10.515625 -1.972656 9.703125 -1.140625 C 8.898438 -0.316406 7.773438 0.09375 6.328125 0.09375 Z M 6.328125 0.09375 "/></g></g></g><g fill="#e1e1e1" fill-opacity="1"><g transform="translate(109.973166, 191.043893)"><g><path d="M 4 -10.171875 L 0.0625 -10.171875 L 0.0625 -11.1875 L 9.109375 -11.1875 L 9.109375 -10.171875 L 5.171875 -10.171875 L 5.171875 0 L 4 0 Z M 4 -10.171875 "/></g></g></g><g fill="#e1e1e1" fill-opacity="1"><g transform="translate(121.548764, 191.043893)"><g><path d="M 1.828125 -11.1875 L 3 -11.1875 L 3 0 L 1.828125 0 Z M 1.828125 -11.1875 "/></g></g></g><g fill="#e1e1e1" fill-opacity="1"><g transform="translate(128.775731, 191.043893)"><g><path d="M 6.71875 0.09375 C 5.601562 0.09375 4.59375 -0.148438 3.6875 -0.640625 C 2.789062 -1.140625 2.085938 -1.820312 1.578125 -2.6875 C 1.078125 -3.550781 0.828125 -4.519531 0.828125 -5.59375 C 0.828125 -6.664062 1.078125 -7.632812 1.578125 -8.5 C 2.085938 -9.363281 2.789062 -10.039062 3.6875 -10.53125 C 4.59375 -11.03125 5.601562 -11.28125 6.71875 -11.28125 C 7.820312 -11.28125 8.816406 -11.035156 9.703125 -10.546875 C 10.597656 -10.054688 11.300781 -9.375 11.8125 -8.5 C 12.320312 -7.632812 12.578125 -6.664062 12.578125 -5.59375 C 12.578125 -4.519531 12.320312 -3.546875 11.8125 -2.671875 C 11.300781 -1.804688 10.597656 -1.128906 9.703125 -0.640625 C 8.816406 -0.148438 7.820312 0.09375 6.71875 0.09375 Z M 6.71875 -0.953125 C 7.601562 -0.953125 8.398438 -1.148438 9.109375 -1.546875 C 9.828125 -1.953125 10.382812 -2.507812 10.78125 -3.21875 C 11.1875 -3.925781 11.390625 -4.71875 11.390625 -5.59375 C 11.390625 -6.46875 11.1875 -7.257812 10.78125 -7.96875 C 10.382812 -8.675781 9.828125 -9.226562 9.109375 -9.625 C 8.398438 -10.03125 7.601562 -10.234375 6.71875 -10.234375 C 5.832031 -10.234375 5.03125 -10.03125 4.3125 -9.625 C 3.59375 -9.226562 3.023438 -8.675781 2.609375 -7.96875 C 2.203125 -7.257812 2 -6.46875 2 -5.59375 C 2 -4.71875 2.203125 -3.925781 2.609375 -3.21875 C 3.023438 -2.507812 3.59375 -1.953125 4.3125 -1.546875 C 5.03125 -1.148438 5.832031 -0.953125 6.71875 -0.953125 Z M 6.71875 -0.953125 "/></g></g></g><g fill="#e1e1e1" fill-opacity="1"><g transform="translate(144.58805, 191.043893)"><g><path d="M 11.171875 -11.1875 L 11.171875 0 L 10.203125 0 L 3 -9.078125 L 3 0 L 1.828125 0 L 1.828125 -11.1875 L 2.796875 -11.1875 L 10 -2.109375 L 10 -11.1875 Z M 11.171875 -11.1875 "/></g></g></g><g fill="#e1e1e1" fill-opacity="1"><g transform="translate(159.984691, 191.043893)"><g><path d="M 4.90625 0.09375 C 4.070312 0.09375 3.273438 -0.0351562 2.515625 -0.296875 C 1.753906 -0.566406 1.164062 -0.921875 0.75 -1.359375 L 1.21875 -2.265625 C 1.625 -1.859375 2.160156 -1.53125 2.828125 -1.28125 C 3.503906 -1.03125 4.195312 -0.90625 4.90625 -0.90625 C 5.90625 -0.90625 6.65625 -1.085938 7.15625 -1.453125 C 7.65625 -1.828125 7.90625 -2.304688 7.90625 -2.890625 C 7.90625 -3.335938 7.769531 -3.691406 7.5 -3.953125 C 7.226562 -4.222656 6.894531 -4.429688 6.5 -4.578125 C 6.113281 -4.722656 5.566406 -4.878906 4.859375 -5.046875 C 4.015625 -5.265625 3.34375 -5.472656 2.84375 -5.671875 C 2.34375 -5.867188 1.910156 -6.164062 1.546875 -6.5625 C 1.191406 -6.96875 1.015625 -7.519531 1.015625 -8.21875 C 1.015625 -8.78125 1.164062 -9.289062 1.46875 -9.75 C 1.769531 -10.21875 2.226562 -10.585938 2.84375 -10.859375 C 3.457031 -11.140625 4.222656 -11.28125 5.140625 -11.28125 C 5.785156 -11.28125 6.410156 -11.191406 7.015625 -11.015625 C 7.628906 -10.835938 8.160156 -10.597656 8.609375 -10.296875 L 8.21875 -9.34375 C 7.75 -9.65625 7.25 -9.890625 6.71875 -10.046875 C 6.1875 -10.203125 5.660156 -10.28125 5.140625 -10.28125 C 4.160156 -10.28125 3.421875 -10.085938 2.921875 -9.703125 C 2.429688 -9.328125 2.1875 -8.84375 2.1875 -8.25 C 2.1875 -7.800781 2.320312 -7.441406 2.59375 -7.171875 C 2.863281 -6.898438 3.203125 -6.691406 3.609375 -6.546875 C 4.023438 -6.398438 4.582031 -6.242188 5.28125 -6.078125 C 6.09375 -5.867188 6.753906 -5.664062 7.265625 -5.46875 C 7.773438 -5.269531 8.203125 -4.972656 8.546875 -4.578125 C 8.898438 -4.179688 9.078125 -3.640625 9.078125 -2.953125 C 9.078125 -2.390625 8.925781 -1.875 8.625 -1.40625 C 8.320312 -0.945312 7.851562 -0.582031 7.21875 -0.3125 C 6.59375 -0.0390625 5.820312 0.09375 4.90625 0.09375 Z M 4.90625 0.09375 "/></g></g></g></svg>